<?xml version="1.0" encoding="UTF-8"?>
<svg id="Layer_1" data-name="Layer 1" xmlns="http://www.w3.org/2000/svg" viewBox="0 0 850 400.37">
  <defs>
    <style>
      .cls-1 {
        fill: #ed8754;
      }
    </style>
  </defs>
  <g>
    <path class="cls-1" d="M25,254c0-33.17,21.46-50.33,76.08-63.2l37.84-8.59v-32.38c0-29.26-5.07-37.84-33.16-37.84-14.83,0-16.78,3.12-18.34,14.82-1.95,20.29-8.98,30.82-28.48,30.82-16.78,0-23.8-8.97-23.8-22.23,0-26.14,37.06-40.58,81.54-40.58,48.38,0,73.74,16,73.74,51.89v109.24c0,12.48,1.95,18.34,10.15,22.24,2.84,1.81,6.87,2.76,11.43,3.31,4.19.51,7.3,4.15,7.3,8.37h0c0,3.11-1.69,5.97-4.43,7.44-8.03,4.33-21.03,8.58-36.15,8.58-21.46,0-33.94-9.37-37.45-23.41h-1.95c-9.37,12.87-29.26,23.41-54.23,23.41-37.06,0-60.08-18.73-60.08-51.89ZM138.92,264.92v-60.86l-24.19,2.34c-25.75,2.34-38.62,12.48-38.62,41.36,0,23.79,12.48,31.6,31.6,31.6,15.6,0,26.53-6.63,31.21-14.44Z"/>
    <path class="cls-1" d="M213.74,359.79c.16-14.31,13.73-24.88,27.86-22.61,10.22,1.64,14.83,7.57,17.79,17.09,2.34,5.85,3.51,8.19,6.63,8.19,8.97,0,19.9-10.54,32.38-39.01l7.41-18.34-70.22-159.96c-10.15-23.01-11.7-25.36-21.46-28.48l-2.88-.96c-3.17-1.06-5.31-4.02-5.31-7.37v-.29c0-4.29,3.48-7.77,7.77-7.77h87.98c4.22,0,7.64,3.42,7.64,7.64v.1c0,3.48-2.35,6.52-5.72,7.39l-4.81,1.25c-8.58,1.95-12.09,5.46-12.09,13.26,0,5.46,1.95,12.48,5.85,21.46l39.01,93.24h1.56l35.11-93.24c3.51-9.75,4.29-17.56,4.29-23.01,0-7.03-3.9-9.76-11.31-11.7l-5.47-1.32c-3.43-.83-5.85-3.9-5.85-7.43h0c0-4.22,3.42-7.64,7.64-7.64h60.28c4.29,0,7.77,3.48,7.77,7.77h0c0,3.48-2.32,6.54-5.67,7.48l-4.08,1.14c-10.15,3.12-12.09,8.58-21.85,32.38l-73.34,175.95c-16.78,40.58-36.28,63.59-69.45,63.59-25.54,0-37.63-13.46-37.45-28.81Z"/>
    <path class="cls-1" d="M450.89,293.39c0-3.44,2.33-6.44,5.66-7.3l8-2.06c10.53-2.73,12.48-5.07,12.48-21.46v-115.87c0-16.38-1.95-17.16-12.48-23.4l-10.31-6.02c-2.31-1.35-3.74-3.83-3.74-6.51v-.28c0-3.82,2.86-7.04,6.65-7.48l63.88-7.52c1.55-.18,3.12.24,4.37,1.18h0c1.7,1.27,2.61,3.34,2.41,5.45l-2.02,21.18h1.56c12.87-13.65,37.45-28.48,58.91-28.48,17.56,0,28.09,9.37,28.09,26.53s-9.76,26.14-24.19,26.14c-16.39,0-21.07-3.9-26.92-14.44-2.73-4.68-5.85-5.85-9.75-5.85-7.41,0-18.73,7.81-24.97,14.05v121.33c0,17.56,1.95,19.9,11.7,21.46l10.78,2.26c3.49.73,5.99,3.81,5.99,7.37h0c0,4.16-3.37,7.53-7.53,7.53h-91.05c-4.16,0-7.53-3.37-7.53-7.53v-.28Z"/>
    <path class="cls-1" d="M630.71,254c0-33.17,21.46-50.33,76.08-63.2l37.84-8.59v-32.38c0-29.26-5.07-37.84-33.16-37.84-14.83,0-16.78,3.12-18.34,14.82-1.95,20.29-8.98,30.82-28.48,30.82-16.78,0-23.8-8.97-23.8-22.23,0-26.14,37.06-40.58,81.54-40.58,48.38,0,73.74,16,73.74,51.89v109.24c0,12.48,1.95,18.34,10.15,22.24,2.84,1.81,6.87,2.76,11.43,3.31,4.19.51,7.3,4.15,7.3,8.37h0c0,3.11-1.69,5.97-4.43,7.44-8.03,4.33-21.03,8.58-36.15,8.58-21.46,0-33.94-9.37-37.45-23.41h-1.95c-9.37,12.87-29.26,23.41-54.23,23.41-37.06,0-60.08-18.73-60.08-51.89ZM744.63,264.92v-60.86l-24.19,2.34c-25.75,2.34-38.62,12.48-38.62,41.36,0,23.79,12.48,31.6,31.6,31.6,15.6,0,26.53-6.63,31.21-14.44Z"/>
  </g>
  <path class="cls-1" d="M691.58,66.2c-15.01,15.01-34.76,22.34-54.41,22-.34-19.65,6.99-39.41,22-54.41,15.01-15.01,34.76-22.34,54.41-22,.34,19.65-6.99,39.41-22,54.41Z"/>
</svg>